<svg viewBox="0 0 48 48" xmlns="http://www.w3.org/2000/svg"><path d="m568 373c13.254834 0 24-10.745166 24-24s-10.745166-24-24-24-24 10.745166-24 24 10.745166 24 24 24zm12.916211-28.922891c.019043.266485.019043.533028.019043.799512 0 8.128125-6.186504 17.493633-17.493633 17.493633-3.483516 0-6.719531-1.008926-9.441621-2.760117.494941.05707.970781.076113 1.484766.076113 2.874316 0 5.520293-.970781 7.633242-2.626875-2.703047-.057129-4.968281-1.827422-5.74875-4.263984.380742.05707.761426.095156 1.161211.095156.552011 0 1.104082-.076172 1.618008-.209356-2.817247-.571113-4.930254-3.045703-4.930254-6.034277v-.076113c.818496.456855 1.770351.742383 2.77916.78041-1.656094-1.104082-2.741074-2.988574-2.741074-5.120566 0-1.14211.304511-2.189063.837539-3.102774 3.02666 3.730957 7.576172 6.167461 12.677636 6.434004-.095156-.456855-.152285-.932695-.152285-1.408594 0-3.388359 2.741133-6.148476 6.148477-6.148476 1.770293 0 3.369258.742382 4.492383 1.941621 1.38955-.266485 2.722031-.780469 3.902285-1.484766-.456914 1.427695-1.427696 2.626934-2.703047 3.388301 1.237324-.133184 2.436562-.475899 3.540586-.951738-.837422 1.218222-1.884434 2.303203-3.083672 3.178886z" fill="currentColor" fill-rule="evenodd" transform="translate(-544 -325)"/></svg>
