<svg viewBox="0 0 48 48" xmlns="http://www.w3.org/2000/svg"><path d="m469 373c13.254834 0 24-10.745166 24-24s-10.745166-24-24-24-24 10.745166-24 24 10.745166 24 24 24zm.006222-31.155556c-3.957333 0-7.149333 3.192-7.149333 7.149334 0 3.957333 3.192 7.149333 7.149333 7.149333 3.957334 0 7.149334-3.192 7.149334-7.149333 0-3.957334-3.192-7.149334-7.149334-7.149334zm0 11.797334c-2.557333 0-4.648-2.084445-4.648-4.648 0-2.563556 2.084445-4.648 4.648-4.648 2.563556 0 4.648 2.084444 4.648 4.648 0 2.563555-2.090666 4.648-4.648 4.648zm9.109334-12.089778c0 .927111-.746667 1.667556-1.667556 1.667556-.927111 0-1.667556-.746667-1.667556-1.667556s.746667-1.667556 1.667556-1.667556 1.667556.746667 1.667556 1.667556zm4.735111 1.692444c-.105778-2.233777-.616-4.212444-2.252445-5.842666-1.630222-1.630222-3.608889-2.140445-5.842666-2.252445-2.302223-.130666-9.202667-.130666-11.504889 0-2.227556.105778-4.206223.616-5.842667 2.246223-1.636444 1.630222-2.140444 3.608888-2.252444 5.842666-.130667 2.302222-.130667 9.202667 0 11.504889.105777 2.233778.616 4.212445 2.252444 5.842667s3.608889 2.140444 5.842667 2.252444c2.302222.130667 9.202666.130667 11.504889 0 2.233777-.105778 4.212444-.616 5.842666-2.252444 1.630222-1.630222 2.140445-3.608889 2.252445-5.842667.130666-2.302222.130666-9.196444 0-11.498667zm-2.974223 13.968889c-.485333 1.219556-1.424888 2.159111-2.650666 2.650667-1.835556.728-6.191111.56-8.219556.56-2.028444 0-6.390222.161778-8.219555-.56-1.219556-.485333-2.159111-1.424889-2.650667-2.650667-.728-1.835555-.56-6.191111-.56-8.219555 0-2.028445-.161778-6.390222.56-8.219556.485333-1.219555 1.424889-2.159111 2.650667-2.650666 1.835555-.728 6.191111-.56 8.219555-.56 2.028445 0 6.390222-.161778 8.219556.56 1.219555.485333 2.159111 1.424888 2.650666 2.650666.728 1.835556.56 6.191111.56 8.219556 0 2.028444.168 6.390222-.56 8.219555z" fill="currentColor" fill-rule="evenodd" transform="translate(-445 -325)"/></svg>
